{"accessors":[{"bufferView":0,"byteOffset":0,"componentType":5126,"count":4,"max":[-0.01,-0.01,0.0075],"min":[-0.01,-0.012,-0.0075],"type":"VEC3"},{"bufferView":0,"byteOffset":48,"componentType":5126,"count":10,"max":[0.01,-0.009999999999999935,0.0075000000000117329],"min":[-0.01,-0.012,0.007499999999999999],"type":"VEC3"},{"bufferView":0,"byteOffset":168,"componentType":5126,"count":8,"max":[-0.004014226032194878,-0.009999999999999999,0.0075000000000117329],"min":[-0.01,-0.01,-0.007500000000011729],"type":"VEC3"},{"bufferView":0,"byteOffset":264,"componentType":5126,"count":10,"max":[0.01,-0.009999999999999935,-0.007499999999999999],"min":[-0.01,-0.012,-0.007500000000011729],"type":"VEC3"},{"bufferView":0,"byteOffset":384,"componentType":5126,"count":4,"max":[0.01,-0.012,0.0075],"min":[-0.01,-0.012,-0.0075],"type":"VEC3"},{"bufferView":0,"byteOffset":432,"componentType":5126,"count":4,"max":[0.01,-0.01,0.0075],"min":[0.01,-0.012,-0.0075],"type":"VEC3"},{"bufferView":0,"byteOffset":480,"componentType":5126,"count":8,"max":[0.01,-0.01,0.007500000000011724],"min":[0.004014226032194884,-0.010000000000000002,-0.007500000000011715],"type":"VEC3"},{"bufferView":0,"byteOffset":576,"componentType":5126,"count":3,"max":[0.005000000000003546,-0.009999999999999935,0.007500000000011724],"min":[0.002857688606920176,-0.010537218767526204,0.007499999999999999],"type":"VEC3"},{"bufferView":0,"byteOffset":612,"componentType":5126,"count":14,"max":[0.0028576886069201776,-0.009999999999999935,0.0075],"min":[-0.0028576886069201815,-0.01,-0.0075],"type":"VEC3"},{"bufferView":0,"byteOffset":780,"componentType":5126,"count":3,"max":[-0.0028576886069201815,-0.009999999999999936,0.0075000000000117329],"min":[-0.005000000000003553,-0.010537218767526204,0.0075],"type":"VEC3"},{"bufferView":0,"byteOffset":816,"componentType":5126,"count":50,"max":[-0.003000139634621203,0.010000000000000002,0.0075000000000117329],"min":[-0.005000000000003553,-0.01,-0.007500000000011729],"type":"VEC3"},{"bufferView":0,"byteOffset":1416,"componentType":5126,"count":3,"max":[0.005000000000003539,-0.009999999999999936,-0.007499999999999999],"min":[0.0028576886069201776,-0.010537218767526197,-0.007500000000011715],"type":"VEC3"},{"bufferView":0,"byteOffset":1452,"componentType":5126,"count":3,"max":[-0.0028576886069201798,-0.009999999999999935,-0.0075],"min":[-0.005000000000003546,-0.0105372187675262,-0.007500000000011729],"type":"VEC3"},{"bufferView":0,"byteOffset":1488,"componentType":5126,"count":50,"max":[0.005000000000003546,0.010000000000000002,0.007500000000011724],"min":[0.0030001396346211988,-0.010000000000000002,-0.007500000000011715],"type":"VEC3"},{"bufferView":0,"byteOffset":2088,"componentType":5126,"count":15,"max":[0.005000000000003546,0.010537218767526655,0.007500000000011724],"min":[0.0014827923455201906,-0.01,0.007499999999998676],"type":"VEC3"},{"bufferView":0,"byteOffset":2268,"componentType":5126,"count":56,"max":[0.00300838213495045,0.010537218767526655,0.0075000000000000018],"min":[0.0010000208443159899,-0.01,-0.0075],"type":"VEC3"},{"bufferView":0,"byteOffset":2940,"componentType":5126,"count":56,"max":[-0.001000020844315998,0.010537218767526656,0.0075],"min":[-0.003008382134950449,-0.01,-0.0075],"type":"VEC3"},{"bufferView":0,"byteOffset":3612,"componentType":5126,"count":15,"max":[-0.0014827923455202114,0.010537218767526656,0.0075000000000117329],"min":[-0.005000000000003553,-0.01,0.007499999999998703],"type":"VEC3"},{"bufferView":0,"byteOffset":3792,"componentType":5126,"count":12,"max":[-0.0020521382814000677,0.010537218767526656,0.007500000000000128],"min":[-0.005000000000000181,0.01,-0.0075000000000001259],"type":"VEC3"},{"bufferView":0,"byteOffset":3936,"componentType":5126,"count":15,"max":[-0.0014827923455202008,0.010537218767526653,-0.00749999999999865],"min":[-0.005000000000003546,-0.01,-0.007500000000011729],"type":"VEC3"},{"bufferView":0,"byteOffset":4116,"componentType":5126,"count":15,"max":[0.005000000000003539,0.010537218767526653,-0.007499999999998658],"min":[0.0014827923455201979,-0.01,-0.007500000000011715],"type":"VEC3"},{"bufferView":0,"byteOffset":4296,"componentType":5126,"count":12,"max":[0.005000000000000181,0.010537218767526655,0.007500000000000131],"min":[0.002052138281400075,0.01,-0.007500000000000123],"type":"VEC3"},{"bufferView":1,"byteOffset":0,"componentType":5126,"count":4,"type":"VEC3"},{"bufferView":1,"byteOffset":48,"componentType":5126,"count":10,"type":"VEC3"},{"bufferView":1,"byteOffset":168,"componentType":5126,"count":8,"type":"VEC3"},{"bufferView":1,"byteOffset":264,"componentType":5126,"count":10,"type":"VEC3"},{"bufferView":1,"byteOffset":384,"componentType":5126,"count":4,"type":"VEC3"},{"bufferView":1,"byteOffset":432,"componentType":5126,"count":4,"type":"VEC3"},{"bufferView":1,"byteOffset":480,"componentType":5126,"count":8,"type":"VEC3"},{"bufferView":1,"byteOffset":576,"componentType":5126,"count":3,"type":"VEC3"},{"bufferView":1,"byteOffset":612,"componentType":5126,"count":14,"type":"VEC3"},{"bufferView":1,"byteOffset":780,"componentType":5126,"count":3,"type":"VEC3"},{"bufferView":1,"byteOffset":816,"componentType":5126,"count":50,"type":"VEC3"},{"bufferView":1,"byteOffset":1416,"componentType":5126,"count":3,"type":"VEC3"},{"bufferView":1,"byteOffset":1452,"componentType":5126,"count":3,"type":"VEC3"},{"bufferView":1,"byteOffset":1488,"componentType":5126,"count":50,"type":"VEC3"},{"bufferView":1,"byteOffset":2088,"componentType":5126,"count":15,"type":"VEC3"},{"bufferView":1,"byteOffset":2268,"componentType":5126,"count":56,"type":"VEC3"},{"bufferView":1,"byteOffset":2940,"componentType":5126,"count":56,"type":"VEC3"},{"bufferView":1,"byteOffset":3612,"componentType":5126,"count":15,"type":"VEC3"},{"bufferView":1,"byteOffset":3792,"componentType":5126,"count":12,"type":"VEC3"},{"bufferView":1,"byteOffset":3936,"componentType":5126,"count":15,"type":"VEC3"},{"bufferView":1,"byteOffset":4116,"componentType":5126,"count":15,"type":"VEC3"},{"bufferView":1,"byteOffset":4296,"componentType":5126,"count":12,"type":"VEC3"},{"bufferView":2,"byteOffset":0,"componentType":5123,"count":6,"type":"SCALAR"},{"bufferView":2,"byteOffset":12,"componentType":5123,"count":24,"type":"SCALAR"},{"bufferView":2,"byteOffset":60,"componentType":5123,"count":18,"type":"SCALAR"},{"bufferView":2,"byteOffset":96,"componentType":5123,"count":24,"type":"SCALAR"},{"bufferView":2,"byteOffset":144,"componentType":5123,"count":6,"type":"SCALAR"},{"bufferView":2,"byteOffset":156,"componentType":5123,"count":6,"type":"SCALAR"},{"bufferView":2,"byteOffset":168,"componentType":5123,"count":18,"type":"SCALAR"},{"bufferView":2,"byteOffset":204,"componentType":5123,"count":3,"type":"SCALAR"},{"bufferView":2,"byteOffset":212,"componentType":5123,"count":36,"type":"SCALAR"},{"bufferView":2,"byteOffset":284,"componentType":5123,"count":3,"type":"SCALAR"},{"bufferView":2,"byteOffset":292,"componentType":5123,"count":228,"type":"SCALAR"},{"bufferView":2,"byteOffset":748,"componentType":5123,"count":3,"type":"SCALAR"},{"bufferView":2,"byteOffset":756,"componentType":5123,"count":3,"type":"SCALAR"},{"bufferView":2,"byteOffset":764,"componentType":5123,"count":228,"type":"SCALAR"},{"bufferView":2,"byteOffset":1220,"componentType":5123,"count":39,"type":"SCALAR"},{"bufferView":2,"byteOffset":1300,"componentType":5123,"count":255,"type":"SCALAR"},{"bufferView":2,"byteOffset":1812,"componentType":5123,"count":255,"type":"SCALAR"},{"bufferView":2,"byteOffset":2324,"componentType":5123,"count":39,"type":"SCALAR"},{"bufferView":2,"byteOffset":2404,"componentType":5123,"count":30,"type":"SCALAR"},{"bufferView":2,"byteOffset":2464,"componentType":5123,"count":39,"type":"SCALAR"},{"bufferView":2,"byteOffset":2544,"componentType":5123,"count":39,"type":"SCALAR"},{"bufferView":2,"byteOffset":2624,"componentType":5123,"count":30,"type":"SCALAR"}],"asset":{"generator":"Open CASCADE Technology 7.6 [dev.opencascade.org]","version":"2.0"},"bufferViews":[{"buffer":0,"byteLength":4440,"byteOffset":0,"byteStride":12,"target":34962},{"buffer":0,"byteLength":4440,"byteOffset":4440,"byteStride":12,"target":34962},{"buffer":0,"byteLength":2684,"byteOffset":8880,"target":34963}],"buffers":[{"byteLength":11564,"uri":"cardboard-stand-v0.2.bin"}],"materials":[{"name":"mat_0","pbrMetallicRoughness":{"baseColorFactor":[0.26635563373565676,0.26635563373565676,0.26635563373565676,1.0]},"doubleSided":true}],"meshes":[{"name":"Fusion001","primitives":[{"attributes":{"NORMAL":22,"POSITION":0},"indices":44,"material":0,"mode":4},{"attributes":{"NORMAL":23,"POSITION":1},"indices":45,"material":0,"mode":4},{"attributes":{"NORMAL":24,"POSITION":2},"indices":46,"material":0,"mode":4},{"attributes":{"NORMAL":25,"POSITION":3},"indices":47,"material":0,"mode":4},{"attributes":{"NORMAL":26,"POSITION":4},"indices":48,"material":0,"mode":4},{"attributes":{"NORMAL":27,"POSITION":5},"indices":49,"material":0,"mode":4},{"attributes":{"NORMAL":28,"POSITION":6},"indices":50,"material":0,"mode":4},{"attributes":{"NORMAL":29,"POSITION":7},"indices":51,"material":0,"mode":4},{"attributes":{"NORMAL":30,"POSITION":8},"indices":52,"material":0,"mode":4},{"attributes":{"NORMAL":31,"POSITION":9},"indices":53,"material":0,"mode":4},{"attributes":{"NORMAL":32,"POSITION":10},"indices":54,"material":0,"mode":4},{"attributes":{"NORMAL":33,"POSITION":11},"indices":55,"material":0,"mode":4},{"attributes":{"NORMAL":34,"POSITION":12},"indices":56,"material":0,"mode":4},{"attributes":{"NORMAL":35,"POSITION":13},"indices":57,"material":0,"mode":4},{"attributes":{"NORMAL":36,"POSITION":14},"indices":58,"material":0,"mode":4},{"attributes":{"NORMAL":37,"POSITION":15},"indices":59,"material":0,"mode":4},{"attributes":{"NORMAL":38,"POSITION":16},"indices":60,"material":0,"mode":4},{"attributes":{"NORMAL":39,"POSITION":17},"indices":61,"material":0,"mode":4},{"attributes":{"NORMAL":40,"POSITION":18},"indices":62,"material":0,"mode":4},{"attributes":{"NORMAL":41,"POSITION":19},"indices":63,"material":0,"mode":4},{"attributes":{"NORMAL":42,"POSITION":20},"indices":64,"material":0,"mode":4},{"attributes":{"NORMAL":43,"POSITION":21},"indices":65,"material":0,"mode":4}]}],"nodes":[{"mesh":0,"name":"Fusion001"}],"scene":0,"scenes":[{"nodes":[0]}]}