<svg xmlns="http://www.w3.org/2000/svg" viewBox="0 -0.5 201 84" shape-rendering="crispEdges">
<metadata>Made with Pixels to Svg https://codepen.io/shshaw/pen/XbxvNj</metadata>
<path stroke="#000000" d="M50 2h16M50 3h16M50 4h16M50 5h16M50 6h16M50 7h16M46 8h25M46 9h25M46 10h25M46 11h25M46 12h25M42 13h33M42 14h33M42 15h33M42 16h33M42 17h33M8 18h25M42 18h12M62 18h13M79 18h12M108 18h12M145 18h25M179 18h8M8 19h25M42 19h12M62 19h13M79 19h12M108 19h12M145 19h25M179 19h8M8 20h25M42 20h12M62 20h13M79 20h12M108 20h12M145 20h25M179 20h8M8 21h25M42 21h12M62 21h13M79 21h12M108 21h12M145 21h25M179 21h8M8 22h25M42 22h12M62 22h13M79 22h12M108 22h12M145 22h25M179 22h8M4 23h33M42 23h12M62 23h13M79 23h12M104 23h16M141 23h33M179 23h12M4 24h33M42 24h12M62 24h13M79 24h12M104 24h16M141 24h33M179 24h12M4 25h33M42 25h12M62 25h13M79 25h12M104 25h16M141 25h33M179 25h12M4 26h33M42 26h12M62 26h13M79 26h12M104 26h16M141 26h33M179 26h12M4 27h33M42 27h12M62 27h13M79 27h12M104 27h16M141 27h33M179 27h12M4 28h33M46 28h25M79 28h21M104 28h16M141 28h33M179 28h12M4 29h33M46 29h25M79 29h21M104 29h16M141 29h33M179 29h12M4 30h33M46 30h25M79 30h21M104 30h16M141 30h33M179 30h12M4 31h33M46 31h25M79 31h21M104 31h16M141 31h33M179 31h12M4 32h33M46 32h25M79 32h21M104 32h16M141 32h33M179 32h12M4 33h33M50 33h16M79 33h21M104 33h16M141 33h33M179 33h12M4 34h33M50 34h16M79 34h21M104 34h16M141 34h33M179 34h12M4 35h33M50 35h16M79 35h21M104 35h16M141 35h33M179 35h12M4 36h33M50 36h16M79 36h21M104 36h16M141 36h33M179 36h12M4 37h33M50 37h16M79 37h21M104 37h16M141 37h33M179 37h12M4 38h13M25 38h12M46 38h25M79 38h12M104 38h16M141 38h13M162 38h12M179 38h12M4 39h13M25 39h12M46 39h25M79 39h12M104 39h16M141 39h13M162 39h12M179 39h12M4 40h13M25 40h12M46 40h25M79 40h12M104 40h16M141 40h13M162 40h12M179 40h12M4 41h13M25 41h12M46 41h25M79 41h12M104 41h16M141 41h13M162 41h12M179 41h12M4 42h13M25 42h12M46 42h25M79 42h12M104 42h16M141 42h13M162 42h12M179 42h12M4 43h13M25 43h12M42 43h33M79 43h12M104 43h25M141 43h13M162 43h12M179 43h12M4 44h13M25 44h12M42 44h33M79 44h12M104 44h25M141 44h13M162 44h12M179 44h12M4 45h13M25 45h12M42 45h33M79 45h12M104 45h25M141 45h13M162 45h12M179 45h12M4 46h13M25 46h12M42 46h33M79 46h12M104 46h25M141 46h13M162 46h12M179 46h12M4 47h13M25 47h12M42 47h33M79 47h12M104 47h25M141 47h13M162 47h12M179 47h12M4 48h13M25 48h12M42 48h12M62 48h13M79 48h12M104 48h29M141 48h13M162 48h12M179 48h12M4 49h13M25 49h12M42 49h12M62 49h13M79 49h12M104 49h29M141 49h13M162 49h12M179 49h12M4 50h13M25 50h12M42 50h12M62 50h13M79 50h12M104 50h29M141 50h13M162 50h12M179 50h12M4 51h13M25 51h12M42 51h12M62 51h13M79 51h12M104 51h29M141 51h13M162 51h12M179 51h12M4 52h13M25 52h12M42 52h12M62 52h13M79 52h12M104 52h29M141 52h13M162 52h12M179 52h12M4 53h13M25 53h12M42 53h12M62 53h13M79 53h12M104 53h33M141 53h13M162 53h12M179 53h12M4 54h13M25 54h12M42 54h12M62 54h13M79 54h12M104 54h33M141 54h13M162 54h12M179 54h12M4 55h13M25 55h12M42 55h12M62 55h13M79 55h12M104 55h33M141 55h13M162 55h12M179 55h12M4 56h13M25 56h12M42 56h12M62 56h13M79 56h12M104 56h33M141 56h13M162 56h12M179 56h12M4 57h13M25 57h12M42 57h12M62 57h13M79 57h12M104 57h33M141 57h13M162 57h12M179 57h12M4 58h13M25 58h12M42 58h12M62 58h13M79 58h21M104 58h12M125 58h12M141 58h13M162 58h12M179 58h12M4 59h13M25 59h12M42 59h12M62 59h13M79 59h21M104 59h12M125 59h12M141 59h13M162 59h12M179 59h12M4 60h13M25 60h12M42 60h12M62 60h13M79 60h21M104 60h12M125 60h12M141 60h13M162 60h12M179 60h12M4 61h13M25 61h12M42 61h12M62 61h13M79 61h21M104 61h12M125 61h12M141 61h13M162 61h12M179 61h12M4 62h13M25 62h12M42 62h12M62 62h13M79 62h21M104 62h12M125 62h12M141 62h13M162 62h12M179 62h12M4 63h13M25 63h12M46 63h25M79 63h21M104 63h12M125 63h12M141 63h13M162 63h12M179 63h16M4 64h13M25 64h12M46 64h25M79 64h21M104 64h12M125 64h12M141 64h13M162 64h12M179 64h16M4 65h13M25 65h12M46 65h25M79 65h21M104 65h12M125 65h12M141 65h13M162 65h12M179 65h16M4 66h13M25 66h12M46 66h25M79 66h21M104 66h12M125 66h12M141 66h13M162 66h12M179 66h16M4 67h13M25 67h12M46 67h25M79 67h21M104 67h12M125 67h12M141 67h13M162 67h12M179 67h16M4 68h13M25 68h12M46 68h25M83 68h17M104 68h12M125 68h12M141 68h13M162 68h12M179 68h16M4 69h13M25 69h12M46 69h25M83 69h17M104 69h12M125 69h12M141 69h13M162 69h12M179 69h16M4 70h13M25 70h12M46 70h25M83 70h17M104 70h12M125 70h12M141 70h13M162 70h12M179 70h16M4 71h13M25 71h12M46 71h25M83 71h17M104 71h12M125 71h12M141 71h13M162 71h12M179 71h16M4 72h13M25 72h12M46 72h25M83 72h17M104 72h12M125 72h12M141 72h13M162 72h12M179 72h16M4 73h13M25 73h12M50 73h16M87 73h13M104 73h12M125 73h12M141 73h13M162 73h12M183 73h12M4 74h13M25 74h12M50 74h16M87 74h13M104 74h12M125 74h12M141 74h13M162 74h12M183 74h12M4 75h13M25 75h12M50 75h16M87 75h13M104 75h12M125 75h12M141 75h13M162 75h12M183 75h12M4 76h13M25 76h12M50 76h16M87 76h13M104 76h12M125 76h12M141 76h13M162 76h12M183 76h12M4 77h13M25 77h12M50 77h16M87 77h13M104 77h12M125 77h12M141 77h13M162 77h12M183 77h12" />
</svg>